<?xml version="1.0" standalone="no"?>
<!DOCTYPE svg PUBLIC "-//W3C//DTD SVG 1.1//EN" "http://www.w3.org/Graphics/SVG/1.1/DTD/svg11.dtd" >
<svg xmlns="http://www.w3.org/2000/svg" xmlns:xlink="http://www.w3.org/1999/xlink" version="1.1">
<metadata></metadata>
<defs>
<font id="futurafuturiscregular" horiz-adv-x="1208" >
<font-face units-per-em="2048" ascent="1511" descent="-537" />
<missing-glyph horiz-adv-x="477" />
<glyph horiz-adv-x="0" />
<glyph unicode="&#xd;" horiz-adv-x="681" />
<glyph unicode=" "  horiz-adv-x="477" />
<glyph unicode="&#x09;" horiz-adv-x="477" />
<glyph unicode="&#xa0;" horiz-adv-x="477" />
<glyph unicode="!" horiz-adv-x="532" d="M131 106.5q0 55.5 40 95.5t95.5 40t95 -40t39.5 -95.5t-39.5 -95.5t-95 -40t-95.5 40t-40 95.5zM162 319v1115h209v-1115h-209z" />
<glyph unicode="&#x22;" horiz-adv-x="778" d="M98 1434h234l-39 -574h-156zM446 1434h234l-39 -574h-156z" />
<glyph unicode="#" horiz-adv-x="1286" d="M41 422l31 188h231l37 242h-231l30 188h232l63 394h209l-63 -394h249l62 394h209l-62 -394h232l-31 -188h-231l-37 -242h231l-31 -188h-231l-68 -422h-208l67 422h-250l-65 -422h-209l65 422h-231zM512 610h250l37 242h-250z" />
<glyph unicode="$" d="M135 395l217 47q4 -96 62 -182q68 -86 186 -86q111 0 173.5 74t62.5 168q0 96 -57.5 150.5t-147.5 92.5l-137 60q-133 57 -213 141t-80 221q0 143 95 248t241 123v184h159v-182q131 -20 211 -92q72 -63 111 -143l-176 -103q-23 53 -66 90q-63 51 -153 51 q-88 0 -144.5 -45t-56.5 -127q0 -113 153 -174l144 -57q338 -135 338 -422q0 -174 -101.5 -297t-259.5 -153v-197h-159v188q-168 16 -281 144q-102 117 -121 278z" />
<glyph unicode="%" horiz-adv-x="1732" d="M68 1110q0 154 109.5 245t236.5 91q141 0 243.5 -99.5t102.5 -236.5t-102.5 -236.5t-243.5 -99.5q-127 0 -236.5 91t-109.5 245zM236 1110q0 -68 48 -126t130 -58q80 0 129 58t49 126t-49 126t-129 58q-82 0 -130 -59t-48 -125zM406 39l819 1419l102 -63l-819 -1420z M973 323.5q0 153.5 109.5 244.5t236.5 91q141 0 243.5 -99t102.5 -236.5t-102.5 -236.5t-243.5 -99q-127 0 -236.5 91t-109.5 244.5zM1141 324q0 -68 48 -126.5t130 -58.5q80 0 129 58.5t49 126t-49 126t-129 58.5q-82 0 -130 -59.5t-48 -124.5z" />
<glyph unicode="&#x26;" horiz-adv-x="1384" d="M111 383q0 74 18 135.5t55 106.5t63.5 69.5t69.5 57.5q70 49 115 79q-143 147 -143 297q0 135 88 234.5t252 99.5q162 0 253 -94t91 -219q0 -109 -62 -186q-68 -82 -178 -166l252 -310l164 185l139 -146l-168 -194l264 -332h-266l-143 176q-53 -57 -121 -104 q-143 -100 -313 -101q-197 0 -313.5 116t-116.5 296zM328 375q0 -82 57 -150.5t164 -68.5q82 0 162 57q70 49 133 119l-283 344q-98 -53 -158 -119q-76 -82 -75 -182zM489 1153q0 -61 52 -125l65 -78l80 58q86 61 86 141q0 51 -36 90t-107 39q-47 0 -78 -15.5t-43 -41 t-15.5 -40t-3.5 -28.5z" />
<glyph unicode="'" horiz-adv-x="430" d="M98 1434h234l-39 -574h-156z" />
<glyph unicode="(" horiz-adv-x="684" d="M163.5 532.5q0.5 315.5 69.5 610.5q51 209 134 379l194 -74q-80 -193 -117 -342q-63 -254 -63 -574q0 -324 63 -575q58 -199 117 -340l-194 -76q-84 170 -134 381q-70 295 -69.5 610.5z" />
<glyph unicode=")" horiz-adv-x="684" d="M123 -383q59 141 117 340q63 252 63 575q0 319 -63 574q-37 149 -117 342l194 74q82 -170 134 -379q70 -295 69.5 -610.5t-69.5 -610.5q-49 -211 -134 -381z" />
<glyph unicode="*" horiz-adv-x="1200" d="M227 1169l60 177l233 -91l-14 250h188l-14 -250l233 91l60 -177l-244 -63l160 -197l-152 -106l-137 211l-137 -211l-152 106l160 197z" />
<glyph unicode="+" horiz-adv-x="1069" d="M68 627v192h366v365h201v-365h366v-192h-366v-365h-201v365h-366z" />
<glyph unicode="," horiz-adv-x="532" d="M-8 -274l217 540l192 -69l-266 -533z" />
<glyph unicode="-" horiz-adv-x="679" d="M82 348v217h516v-217h-516z" />
<glyph unicode="." horiz-adv-x="532" d="M131 106.5q0 55.5 40 95.5t95.5 40t95 -40t39.5 -95.5t-39.5 -95.5t-95 -40t-95.5 40t-40 95.5z" />
<glyph unicode="/" horiz-adv-x="1150" d="M0 -377l819 1901l172 -78l-819 -1901z" />
<glyph unicode="0" d="M94 715q0 381 187 592q135 156 323.5 155.5t323.5 -155.5q186 -211 186 -592q0 -377 -186 -588q-137 -156 -323.5 -156t-323.5 156q-186 211 -187 588zM311 719q0 -279 101 -432q78 -119 192.5 -119t192.5 119q100 154 100 432q0 276 -100 428q-78 119 -193 119 t-192 -119q-100 -152 -101 -428z" />
<glyph unicode="1" d="M287 1233l119 201h348v-1434h-222v1233h-245z" />
<glyph unicode="2" d="M70 0l499 602q125 152 172 223q70 104 70 202.5t-63.5 168.5t-172.5 70q-102 0 -174.5 -72t-76.5 -190h-213q8 182 120 313q123 145 342 145q215 0 335 -126t120 -310q0 -147 -102 -301q-39 -59 -205 -258l-229 -270h540v-197h-962z" />
<glyph unicode="3" d="M98 387h213q8 -94 74 -156.5t168 -62.5q111 0 178.5 71.5t67.5 190.5q0 100 -65.5 167t-180.5 67h-43v188h43q225 0 225 195q0 102 -58 160.5t-157 58.5q-90 0 -146.5 -51.5t-62.5 -143.5h-213q12 135 72 225q111 166 352 166q197 0 311.5 -111.5t114.5 -289.5 q0 -197 -157 -305q182 -92 182 -328q0 -76 -21.5 -148.5t-71 -145.5t-146.5 -118t-228 -45q-174 0 -274.5 75t-141.5 181q-29 74 -35 160z" />
<glyph unicode="4" d="M41 205l917 1331v-1135h152v-196h-152v-205h-208v205h-709zM422 401h328v484z" />
<glyph unicode="5" d="M57 244l164 137q35 -82 107.5 -147.5t193.5 -65.5q147 0 226 91t79 228.5t-78.5 225.5t-211.5 88q-172 0 -261 -125h-73l225 758h594v-197h-447l-67 -244q45 4 65 4q182 0 310 -108q162 -139 161 -389q0 -98 -31.5 -190.5t-94 -169.5t-168 -123t-242.5 -46 q-299 0 -451 273z" />
<glyph unicode="6" d="M123 438q0 168 141 363l500 682l158 -119l-342 -461q37 6 71 6q172 0 303 -116.5t131 -339.5q0 -207 -129 -344.5t-348 -137.5q-207 0 -346 129t-139 338zM340 440q0 -119 73.5 -195.5t190.5 -76.5t190.5 77t73.5 195q0 121 -73.5 197t-192.5 76q-115 0 -188.5 -76 t-73.5 -197z" />
<glyph unicode="7" d="M102 57l713 1180h-704v197h1060l-897 -1483z" />
<glyph unicode="8" d="M152 408q-1 237 192 337q-158 111 -158 306q0 186 121 298.5t297 112.5t297 -112.5t121 -298.5q0 -195 -158 -306q193 -100 193 -337q0 -201 -132 -319t-320.5 -118t-320.5 118t-132 319zM369 412q0 -109 65.5 -176.5t170 -67.5t170 67.5t65.5 176.5q0 111 -71 174 t-165 63t-164.5 -63.5t-70.5 -173.5zM387 1049q0 -104 67.5 -159.5t149.5 -55.5t149.5 55t67.5 160q0 98 -60.5 157.5t-156.5 59.5t-156.5 -59.5t-60.5 -157.5z" />
<glyph unicode="9" d="M123 983q0 205 131 342t352 137q225 0 352 -139t127 -328q0 -168 -141 -362l-500 -682l-157 119l342 460q-31 -6 -64 -6q-172 0 -307 122t-135 337zM340 993q0 -121 73.5 -196.5t194.5 -75.5q115 0 187.5 74.5t72.5 197.5q0 119 -73.5 196t-190.5 77t-190.5 -77 t-73.5 -196z" />
<glyph unicode=":" horiz-adv-x="532" d="M131 106.5q0 55.5 40 95.5t95.5 40t95 -40t39.5 -95.5t-39.5 -95.5t-95 -40t-95.5 40t-40 95.5zM131 794.5q0 55.5 40 95.5t95.5 40t95 -40t39.5 -95.5t-39.5 -95.5t-95 -40t-95.5 40t-40 95.5z" />
<glyph unicode=";" horiz-adv-x="532" d="M-8 -274l217 540l192 -69l-266 -533zM131 794.5q0 55.5 40 95.5t95.5 40t95 -40t39.5 -95.5t-39.5 -95.5t-95 -40t-95.5 40t-40 95.5z" />
<glyph unicode="&#x3c;" horiz-adv-x="1069" d="M68 627v176l933 454v-208l-708 -334l708 -334v-209z" />
<glyph unicode="=" horiz-adv-x="1069" d="M68 471v180h933v-180h-933zM68 819v180h933v-180h-933z" />
<glyph unicode="&#x3e;" horiz-adv-x="1069" d="M68 172v209l708 334l-708 334v208l933 -454v-176z" />
<glyph unicode="?" horiz-adv-x="921" d="M111 1124q0 139 90 238.5t260 99.5q156 0 253 -96t97 -266q0 -158 -127 -246q-68 -47 -215 -102q-27 -10 -41 -16.5t-35.5 -22t-32 -37t-10.5 -49.5q0 -45 30 -77t77 -32q63 0 92 51q23 41 18 95h213q-6 -121 -57 -197q-92 -137 -268 -137q-129 0 -223.5 83t-94.5 226 q0 72 22.5 125t67.5 88t78 51.5t86 36.5q133 49 158 70q49 39 49 114q0 70 -36 110t-101 40q-137 0 -137 -154q0 -12 2 -38.5t2 -30.5h-213q-4 51 -4 73zM326 106.5q0 55.5 40 95.5t95 40t95 -40t40 -95.5t-40 -95.5t-95 -40t-95 40t-40 95.5z" />
<glyph unicode="@" horiz-adv-x="1564" d="M70 707q0 326 212 536.5t535 210.5q293 0 485.5 -171t192.5 -464q0 -231 -102 -366q-45 -59 -112 -97.5t-136 -38.5q-23 0 -46.5 4.5t-64.5 37t-51 92.5q-102 -145 -268 -146q-127 0 -215 91t-88 253q0 199 116.5 315.5t259.5 116.5q33 0 68 -7t84 -40t72 -90l22 111h148 l-84 -432q-12 -66 -13 -97q0 -45 21.5 -65.5t46.5 -20.5q33 0 72 28t59 58q31 43 51.5 129t20.5 162q0 199 -138.5 354.5t-394.5 155.5q-260 0 -437 -180t-177 -442q0 -186 98.5 -342t267.5 -220q119 -43 261 -43q221 0 421 88l37 -131q-203 -84 -463 -84q-317 0 -520 174 q-242 207 -241 560zM580 651q0 -92 44.5 -143t112.5 -51q94 0 163 82t69 206q0 20 -4 43t-17.5 60t-50.5 59.5t-90 22.5q-92 0 -159.5 -75t-67.5 -204z" />
<glyph unicode="A" horiz-adv-x="1409" d="M8 0l713 1516l680 -1516h-238l-151 348h-609l-157 -348h-238zM492 553h434l-213 483z" />
<glyph unicode="B" horiz-adv-x="1118" d="M164 0v1434h217q86 0 124 -2t107.5 -19.5t122.5 -54.5q162 -113 162 -324q0 -164 -127 -262q125 -39 187.5 -136t62.5 -210q0 -207 -143 -326q-57 -47 -137.5 -70.5t-124.5 -26.5t-121 -3h-330zM385 205h131q158 0 220.5 64.5t62.5 152.5q0 90 -62.5 152.5t-216.5 62.5 h-135v-432zM385 817h66q233 0 233 211q0 201 -225 201h-74v-412z" />
<glyph unicode="C" horiz-adv-x="1323" d="M98 711q0 342 230 561q199 190 518 190q225 0 383 -106v-258q-163 159 -384 159h-3q-231 0 -372.5 -153.5t-141.5 -392.5q0 -231 144 -383t370 -152q213 0 387 166v-262q-170 -109 -393 -109q-297 0 -508 199q-229 219 -230 541z" />
<glyph unicode="D" horiz-adv-x="1372" d="M164 0v1434h301q176 0 298 -28t234 -112q276 -207 277 -581q0 -372 -289 -576q-117 -82 -236.5 -109.5t-287.5 -27.5h-297zM385 205h92q248 0 381 102q186 141 186 408q0 125 -48 236.5t-136 176.5q-133 100 -383 101h-92v-1024z" />
<glyph unicode="E" horiz-adv-x="1060" d="M164 0v1434h790v-205h-569v-344h553v-205h-553v-475h569v-205h-790z" />
<glyph unicode="F" horiz-adv-x="954" d="M164 0v1434h717v-205h-496v-344h479v-205h-479v-680h-221z" />
<glyph unicode="G" horiz-adv-x="1597" d="M98 715q0 315 205 528q209 219 541 219q244 0 436 -137q96 -70 158 -156l-156 -147q-161 235 -436 235h-2q-225 0 -370.5 -153.5t-145.5 -388.5q0 -233 148.5 -386t361.5 -153q168 0 284.5 102.5t143.5 262.5h-357v204h590v-45q0 -276 -129 -458q-193 -270 -539 -271 q-307 0 -516 209q-217 217 -217 535z" />
<glyph unicode="H" horiz-adv-x="1380" d="M164 0v1434h221v-562h610v562h222v-1434h-222v668h-610v-668h-221z" />
<glyph unicode="I" horiz-adv-x="548" d="M164 0v1434h221v-1434h-221z" />
<glyph unicode="J" horiz-adv-x="770" d="M-37 45l107 184q63 -53 149 -53q104 0 146 96q20 45 20 232v930h221v-928q0 -219 -53 -328q-49 -102 -138 -154.5t-198 -52.5q-143 0 -254 74z" />
<glyph unicode="K" horiz-adv-x="1249" d="M164 0v1434h221v-572l553 572h287l-647 -650l651 -784h-291l-553 688v-688h-221z" />
<glyph unicode="L" horiz-adv-x="835" d="M164 0v1434h221v-1229h418v-205h-639z" />
<glyph unicode="M" horiz-adv-x="1818" d="M123 0l301 1540l498 -1110l503 1110l271 -1540h-226l-143 864l-418 -930l-411 932l-150 -866h-225z" />
<glyph unicode="N" horiz-adv-x="1585" d="M164 0v1528l1036 -1086v992h221v-1520l-1036 1085v-999h-221z" />
<glyph unicode="O" horiz-adv-x="1687" d="M98 715q0 317 213 532t532.5 215t532.5 -215t213 -532q0 -315 -212 -529.5t-533.5 -214.5t-533.5 214t-212 530zM328 714.5q0 -237.5 144 -388t371.5 -150.5t372 150.5t144.5 388t-144.5 390t-372 152.5t-371.5 -152.5t-144 -390z" />
<glyph unicode="P" horiz-adv-x="1019" d="M164 0v1434h315q195 0 314 -78q178 -117 178 -348q0 -195 -140 -314q-130 -112 -346 -112h-4h-96v-582h-221zM385 786h96q268 0 269 224q0 219 -271 219h-94v-443z" />
<glyph unicode="Q" horiz-adv-x="1691" d="M98 715q0 317 213 532t535 215q319 0 532 -215t213 -532q0 -299 -198 -512l233 -232h-274l-105 109q-164 -109 -391 -109q-188 0 -338.5 67.5t-240 178.5t-134.5 239t-45 259zM328 714.5q0 -237.5 145 -388t373 -150.5q137 0 241 60l-335 331h274l215 -217 q121 147 121 365q0 238 -145.5 390t-370.5 152q-227 0 -372.5 -152.5t-145.5 -390z" />
<glyph unicode="R" horiz-adv-x="1138" d="M164 0v1434h256q254 0 379 -84q92 -61 131 -155.5t39 -182.5q0 -152 -88 -259.5t-232 -140.5l449 -612h-267l-409 588h-37v-588h-221zM385 776h68q29 0 54 2t73.5 14.5t81 35t59.5 69.5t27 113q0 219 -289 219h-74v-453z" />
<glyph unicode="S" horiz-adv-x="1103" d="M82 395l217 47q4 -106 61 -182q63 -84 185 -84q117 0 178 70.5t61 169.5q0 96 -57 150.5t-149 92.5l-138 60q-293 127 -293 362q0 168 123 274.5t297 106.5q176 0 287 -98q68 -59 111 -145l-177 -103q-23 53 -65 90q-59 51 -150 51q-88 0 -146 -45t-58 -125 q0 -115 153 -176l144 -57q340 -133 340 -424q0 -203 -131.5 -331t-333.5 -128q-211 0 -338 146q-102 117 -121 278z" />
<glyph unicode="T" horiz-adv-x="917" d="M20 1229v205h877v-205h-328v-1229h-221v1229h-328z" />
<glyph unicode="U" horiz-adv-x="1388" d="M164 512v922h221v-865q0 -168 43 -247q35 -63 103.5 -104.5t162.5 -41.5q188 0 267 146q43 82 43 247v865h221v-922q0 -225 -133 -373q-152 -168 -397.5 -168t-397.5 168q-133 147 -133 373z" />
<glyph unicode="V" horiz-adv-x="1290" d="M8 1434h238l399 -1000l399 1000h238l-637 -1524z" />
<glyph unicode="W" horiz-adv-x="2019" d="M8 1434h238l377 -959l387 1028l374 -1028l390 959h237l-641 -1524l-373 1014l-379 -1014z" />
<glyph unicode="X" horiz-adv-x="1171" d="M20 0l451 748l-395 686h246l278 -486l287 486h246l-414 -686l432 -748h-246l-313 549l-326 -549h-246z" />
<glyph unicode="Y" horiz-adv-x="1159" d="M0 1434h246l334 -578l333 578h246l-469 -816v-618h-221v618z" />
<glyph unicode="Z" horiz-adv-x="1183" d="M61 0l705 1229h-590v205h946l-704 -1229h688v-205h-1045z" />
<glyph unicode="[" horiz-adv-x="667" d="M180 -430v1935h393v-188h-184v-1559h184v-188h-393z" />
<glyph unicode="\" horiz-adv-x="1150" d="M160 1446l172 78l819 -1901l-172 -78z" />
<glyph unicode="]" horiz-adv-x="667" d="M94 -242h185v1559h-185v188h393v-1935h-393v188z" />
<glyph unicode="^" horiz-adv-x="1073" d="M33 758l368 676h271l368 -676h-225l-278 516l-279 -516h-225z" />
<glyph unicode="_" horiz-adv-x="860" d="M0 -119h860v-188h-860v188z" />
<glyph unicode="`" horiz-adv-x="1048" d="M176 1352l193 98l258 -336l-115 -74z" />
<glyph unicode="a" horiz-adv-x="1130" d="M82 452.5q0 194.5 118.5 336t321.5 141.5q176 0 273 -131v106h209v-905h-209v94q-104 -123 -275 -123q-199 0 -318.5 143.5t-119.5 338zM299 449q0 -121 68.5 -205t185.5 -84t185.5 82t68.5 209q0 139 -74 214.5t-180 75.5q-113 0 -183.5 -84t-70.5 -208z" />
<glyph unicode="b" horiz-adv-x="1130" d="M127 0v1505h209v-706q96 131 272 131q203 0 322 -141.5t119 -335.5q0 -217 -130.5 -349.5t-310.5 -132.5q-166 0 -272 123v-94h-209zM324 446q0 -125 68.5 -205.5t187.5 -80.5q115 0 183 84t68 205q0 125 -69 208.5t-182 83.5q-106 0 -181 -76.5t-75 -218.5z" />
<glyph unicode="c" horiz-adv-x="897" d="M82 446q0 221 147 361q131 123 340 123q153 0 262 -66v-274q-43 70 -113.5 110.5t-148.5 40.5q-109 0 -189.5 -77.5t-80.5 -212.5q0 -123 72.5 -207t195.5 -84q162 0 264 153v-274q-117 -68 -249 -68q-233 0 -371 140q-129 129 -129 335z" />
<glyph unicode="d" horiz-adv-x="1130" d="M82 455q0 193 118.5 334t321.5 141q177 0 273 -131v706h209v-1505h-209v94q-104 -123 -281 -123q-193 0 -312.5 143.5t-119.5 340.5zM299 446q0 -121 68.5 -203.5t183.5 -82.5q119 0 187.5 81t68.5 205q0 141 -75 218t-181 77q-113 0 -182.5 -84t-69.5 -211z" />
<glyph unicode="e" horiz-adv-x="1036" d="M82 446q0 219 118.5 351.5t317.5 132.5q231 0 344 -166q84 -125 84 -330v-33h-647q2 -115 77 -178t167 -63q80 0 143 49q57 43 92 125l176 -98q-51 -94 -118 -154q-125 -111 -316 -111q-174 0 -306 123t-132 352zM311 573h420q-18 78 -74.5 123t-134.5 45 q-76 0 -133.5 -46t-77.5 -122z" />
<glyph unicode="f" horiz-adv-x="581" d="M41 717v188h115v287q0 188 94 272q78 68 192 68q66 0 152 -33v-213q-76 41 -135 41q-51 0 -74 -33q-20 -31 -20 -102v-287h229v-188h-229v-717h-209v717h-115z" />
<glyph unicode="g" horiz-adv-x="1130" d="M82 453q0 195 118.5 336t323.5 141q169 0 271 -123v98h209v-866q0 -70 -2.5 -107.5t-23 -105.5t-60.5 -119q-129 -166 -365 -166q-164 0 -283.5 85t-158.5 249h208q51 -145 236 -145q78 0 130 27.5t73.5 72.5t29 80t7.5 72v118q-106 -129 -275 -129q-199 0 -318.5 142.5 t-119.5 339.5zM299 453q0 -125 68.5 -209t183.5 -84q119 0 187.5 81t68.5 205q0 141 -75 218t-181 77q-113 0 -182.5 -84t-69.5 -204z" />
<glyph unicode="h" horiz-adv-x="1032" d="M127 0v1505h209v-678q94 102 244 103q186 0 268 -123q57 -84 57 -252v-555h-209v535q0 43 -1 60t-10 46t-30 51q-41 49 -120 49q-104 0 -156 -77q-43 -63 -43 -228v-436h-209z" />
<glyph unicode="i" horiz-adv-x="462" d="M96 1278q0 55 40 95t95.5 40t95.5 -40t40 -95t-40 -95t-95.5 -40t-95.5 40t-40 95zM127 0v905h209v-905h-209z" />
<glyph unicode="j" horiz-adv-x="462" d="M96 1278q0 55 40 95t95.5 40t95.5 -40t40 -95t-40 -95t-95.5 -40t-95.5 40t-40 95zM127 -430v1335h209v-1335h-209z" />
<glyph unicode="k" horiz-adv-x="942" d="M127 0v1505h209v-911l299 311h274l-387 -377l416 -528h-266l-336 434v-434h-209z" />
<glyph unicode="l" horiz-adv-x="462" d="M127 0v1505h209v-1505h-209z" />
<glyph unicode="m" horiz-adv-x="1495" d="M127 0v905h209v-84q86 109 225 109q162 0 234 -135q88 135 268 135q174 0 258 -144q47 -78 47 -227v-559h-209v498q0 106 -18 161q-33 82 -121 82q-84 0 -127 -69q-41 -61 -41 -205v-467h-209v498q0 109 -20 161q-31 82 -121 82q-80 0 -127 -69q-39 -59 -39 -205v-467 h-209z" />
<glyph unicode="n" horiz-adv-x="1032" d="M127 0v905h209v-84q94 109 248 109q182 0 266 -123q55 -82 55 -252v-555h-209v504q0 41 -1 59.5t-9 59.5t-24.5 61.5t-50 38.5t-83.5 18q-51 0 -89 -19.5t-57.5 -47t-30.5 -72.5t-13 -81t-2 -87v-434h-209z" />
<glyph unicode="o" horiz-adv-x="1130" d="M82 450.5q0 206.5 138 343t345 136.5t345.5 -136.5t138.5 -343t-138.5 -343t-345.5 -136.5t-345 136.5t-138 343zM299 449q0 -143 79 -216t187.5 -73t187 72.5t78.5 216.5q0 147 -78.5 219.5t-187 72.5t-187.5 -72.5t-79 -219.5z" />
<glyph unicode="p" horiz-adv-x="1130" d="M127 -430v1335h209v-98q102 123 274 123q182 0 310.5 -131t128.5 -344t-133.5 -348.5t-303.5 -135.5q-35 0 -73.5 8.5t-99 40t-103.5 84.5v-534h-209zM324 449q0 -123 67.5 -206t188.5 -83q115 0 183 84t68 209q0 135 -74.5 211.5t-176.5 76.5q-104 0 -180 -77.5 t-76 -214.5z" />
<glyph unicode="q" horiz-adv-x="1130" d="M82 453q0 195 118.5 336t321.5 141q175 0 273 -123v98h209v-1335h-209v530q-102 -129 -279 -129q-197 0 -315.5 142.5t-118.5 339.5zM299 451q0 -127 68.5 -209t183.5 -82q109 0 182.5 74.5t73.5 211.5q0 141 -75 218t-181 77q-113 0 -182.5 -83t-69.5 -207z" />
<glyph unicode="r" horiz-adv-x="708" d="M127 0v905h209v-82q86 106 215 107q92 0 170 -53l-94 -191q-51 43 -119 43q-90 0 -135 -72q-37 -59 -37 -186v-471h-209z" />
<glyph unicode="s" horiz-adv-x="765" d="M70 197l176 79q37 -116 147 -116h2q49 0 75 26.5t26 71.5q0 39 -20.5 63.5t-74.5 51.5q-12 6 -80.5 37.5t-99.5 50.5q-55 35 -80.5 80t-25.5 118q0 115 73.5 193t208.5 78q182 0 258 -178l-174 -93q-27 82 -100 82q-70 0 -70 -59q0 -25 15.5 -43t37 -30.5t68.5 -35.5 q119 -51 172 -92q109 -80 109 -202q0 -143 -102.5 -225.5t-227.5 -82.5q-100 0 -187 57.5t-126 168.5z" />
<glyph unicode="t" horiz-adv-x="516" d="M49 717v188h90v324h209v-324h160v-188h-160v-717h-209v717h-90z" />
<glyph unicode="u" horiz-adv-x="1028" d="M127 381v524h209v-520q0 -115 39 -164q47 -61 139 -61t139 61q39 49 39 164v520h209v-524q0 -98 -17.5 -167t-78.5 -130q-109 -113 -295 -113q-176 0 -287 113q-61 61 -78.5 130t-17.5 167z" />
<glyph unicode="v" horiz-adv-x="962" d="M12 905h238l231 -516l232 516h237l-469 -966z" />
<glyph unicode="w" horiz-adv-x="1474" d="M12 905h238l233 -516l254 594l254 -594l234 516h237l-471 -966l-254 577l-254 -577z" />
<glyph unicode="x" horiz-adv-x="1064" d="M12 0l400 489l-322 416h250l199 -264l202 264h258l-333 -416l387 -489h-254l-260 338l-269 -338h-258z" />
<glyph unicode="y" horiz-adv-x="1036" d="M12 905h254l266 -510l254 510h238l-686 -1335h-238l316 598z" />
<glyph unicode="z" horiz-adv-x="1028" d="M16 0l586 711h-463v194h873l-582 -712h537v-193h-951z" />
<glyph unicode="{" horiz-adv-x="1048" d="M274 446v172q121 25 121 179v368q0 178 94 246q70 51 222 51h100v-180h-16q-119 0 -154 -35q-37 -37 -37 -137v-317q0 -109 -24 -160q-14 -29 -41 -54.5t-43.5 -34.5t-24.5 -12q8 -2 24.5 -11t43 -34.5t41.5 -54.5q25 -51 24 -160v-317q0 -100 37 -137q35 -35 154 -35h16 v-180h-100q-152 0 -222 51q-94 68 -94 246v368q0 154 -121 178z" />
<glyph unicode="|" horiz-adv-x="1032" d="M414 -537v2149h204v-2149h-204z" />
<glyph unicode="}" horiz-adv-x="1048" d="M274 -217h17q119 0 153 35q37 37 37 137v317q0 109 25 160q14 29 40.5 54.5t43 34.5t24.5 11q-8 2 -24.5 11.5t-43 35t-40.5 54.5q-25 51 -25 160v317q0 100 -37 137q-35 35 -153 35h-17v180h101q152 0 221 -51q94 -68 94 -246v-368q0 -154 121 -179v-172 q-121 -25 -121 -178v-368q0 -178 -94 -246q-70 -51 -221 -51h-101v180z" />
<glyph unicode="~" horiz-adv-x="1417" d="M188 623q51 117 109 178q82 90 197 90q92 0 235 -66q131 -59 201 -59q63 0 106 37q37 31 70 92l123 -70q-53 -131 -142 -200q-76 -59 -178 -60q-76 0 -241 68q-141 57 -187 57q-63 0 -110 -47q-39 -39 -62 -98z" />
<glyph unicode="&#xa9;" horiz-adv-x="1622" d="M68 714.5q0 319.5 212 533.5t531 214t531 -214t212 -533.5t-212 -531.5t-531 -212t-531 212t-212 531.5zM190 715q0 -270 175.5 -451.5t445.5 -181.5t445.5 181t175.5 452q0 272 -175.5 454.5t-445.5 182.5t-445.5 -182.5t-175.5 -454.5zM381 713q0 197 133 323.5 t338 126.5q129 1 246 -67v-187q-117 106 -254 107q-129 0 -214 -86t-85 -217t84 -213t217 -82t252 108v-188q-121 -68 -254 -68q-199 0 -331 126t-132 317z" />
<glyph unicode="&#xab;" horiz-adv-x="1085" d="M82 467l352 463l139 -99l-278 -364l278 -365l-139 -98zM483 467l353 463l139 -99l-279 -364l279 -365l-139 -98z" />
<glyph unicode="&#xad;" horiz-adv-x="679" d="M82 348v217h516v-217h-516z" />
<glyph unicode="&#xae;" horiz-adv-x="1622" d="M68 714.5q0 319.5 212 533.5t531 214t531 -214t212 -533.5t-212 -531.5t-531 -212t-531 212t-212 531.5zM190 715q0 -270 175.5 -451.5t445.5 -181.5t445.5 181t175.5 452q0 272 -175.5 454.5t-445.5 182.5t-445.5 -182.5t-175.5 -454.5zM526 289v860h222q307 0 307 -260 q0 -96 -51.5 -158.5t-137.5 -79.5l287 -362h-184l-254 340h-41v-340h-148zM674 764h55q178 0 178 125t-174 125h-59v-250z" />
<glyph unicode="&#xbb;" horiz-adv-x="1085" d="M111 102l278 365l-278 364l139 99l352 -463l-352 -463zM512 102l279 365l-279 364l139 99l353 -463l-353 -463z" />
<glyph unicode="&#x401;" horiz-adv-x="1060" d="M164 0v1434h790v-205h-569v-344h553v-205h-553v-475h569v-205h-790zM213 1708q0 55 40 95t95 40t95 -40t40 -95t-40 -95t-95 -40t-95 40t-40 95zM639 1708q0 55 40 95t95 40t95 -40t40 -95t-40 -95t-95 -40t-95 40t-40 95z" />
<glyph unicode="&#x402;" horiz-adv-x="1495" d="M20 1229v205h1024v-205h-475v-383q131 16 277 16q219 0 342 -67q209 -115 209 -387q0 -199 -120 -318t-306 -119q-139 0 -275 62l52 205q111 -61 225 -62q90 0 146.5 61.5t56.5 163.5q0 158 -127 220q-78 37 -213 36q-129 0 -267 -16v-641h-221v1229h-328z" />
<glyph unicode="&#x403;" horiz-adv-x="909" d="M164 0v1434h717v-205h-496v-1229h-221zM381 1642l299 304l184 -127l-381 -258z" />
<glyph unicode="&#x404;" horiz-adv-x="1323" d="M98 715q0 342 230 559q203 188 518 188q225 0 383 -106v-258q-166 160 -389 159q-246 0 -379 -151q-96 -109 -123 -268h698v-205h-704q10 -172 129 -299q145 -158 381 -158q219 0 387 162v-258q-170 -109 -393 -109q-297 0 -508 199q-229 217 -230 545z" />
<glyph unicode="&#x405;" horiz-adv-x="1103" d="M82 395l217 47q4 -106 61 -182q63 -84 185 -84q117 0 178 70.5t61 169.5q0 96 -57 150.5t-149 92.5l-138 60q-293 127 -293 362q0 168 123 274.5t297 106.5q176 0 287 -98q68 -59 111 -145l-177 -103q-23 53 -65 90q-59 51 -150 51q-88 0 -146 -45t-58 -125 q0 -115 153 -176l144 -57q340 -133 340 -424q0 -203 -131.5 -331t-333.5 -128q-211 0 -338 146q-102 117 -121 278z" />
<glyph unicode="&#x406;" horiz-adv-x="548" d="M164 0v1434h221v-1434h-221z" />
<glyph unicode="&#x407;" horiz-adv-x="548" d="M-6 1708q0 49 34.5 84t84 35t84 -35t34.5 -84t-34.5 -84t-84 -35t-84 35t-34.5 84zM164 0v1434h221v-1434h-221zM317 1708q0 49 35 84t84 35t84 -35t35 -84t-35 -84t-84 -35t-84 35t-35 84z" />
<glyph unicode="&#x408;" horiz-adv-x="770" d="M-37 45l107 184q63 -53 149 -53q104 0 146 96q20 45 20 232v930h221v-928q0 -219 -53 -328q-49 -102 -138 -154.5t-198 -52.5q-143 0 -254 74z" />
<glyph unicode="&#x409;" horiz-adv-x="1929" d="M29 0v205q49 -12 71 -12q86 0 138 47q72 68 71 340v854h916v-578h159q229 0 361 -115q135 -119 135 -313q0 -94 -42 -190.5t-136 -159.5q-115 -78 -313 -78h-385v1229h-474v-715q0 -156 -26.5 -260t-118.5 -180q-102 -86 -252 -86q-59 0 -104 12zM1225 205h151 q283 0 283 219q0 33 -8.5 64.5t-34 72.5t-86 65.5t-150.5 24.5h-155v-446z" />
<glyph unicode="&#x40a;" horiz-adv-x="1921" d="M164 0v1434h221v-578h610v578h222v-578h159q229 0 361 -115q135 -119 135 -313q0 -94 -42 -190.5t-136 -159.5q-115 -78 -314 -78h-385v651h-610v-651h-221zM1217 205h151q283 0 283 219q0 33 -8.5 64.5t-34 72.5t-86 65.5t-150.5 24.5h-155v-446z" />
<glyph unicode="&#x40b;" horiz-adv-x="1476" d="M20 1229v205h1027v-205h-476v-383q135 14 277 14q252 0 364 -88q141 -111 142 -348v-424h-221v391q0 49 -2.5 76t-20.5 72t-53 71q-57 45 -230 45q-123 0 -256 -14v-641h-221v1229h-330z" />
<glyph unicode="&#x40c;" horiz-adv-x="1249" d="M164 0v1434h221v-572l553 572h287l-647 -650l651 -784h-291l-553 688v-688h-221zM469 1642l299 304l184 -127l-381 -258z" />
<glyph unicode="&#x40e;" horiz-adv-x="1224" d="M12 1434h267l374 -744l330 744h229l-647 -1434h-229l192 428zM276 1788l173 76q16 -57 66 -88t115.5 -31t116 30.5t66.5 88.5l172 -76q-43 -100 -134 -159.5t-220 -59.5t-220.5 59.5t-134.5 159.5z" />
<glyph unicode="&#x40f;" horiz-adv-x="1359" d="M164 0v1434h221v-1229h590v1229h221v-1434h-414v-389h-204v389h-414z" />
<glyph unicode="&#x410;" horiz-adv-x="1409" d="M8 0l713 1516l680 -1516h-238l-151 348h-609l-157 -348h-238zM492 553h434l-213 483z" />
<glyph unicode="&#x411;" horiz-adv-x="1118" d="M164 0v1434h719v-205h-498v-373h139q231 0 361 -115q135 -121 135 -315q0 -94 -42 -189.5t-136 -158.5q-115 -78 -314 -78h-364zM385 205h131q283 0 283 219q0 33 -8.5 64.5t-34 72.5t-86 65.5t-150.5 24.5h-135v-446z" />
<glyph unicode="&#x412;" horiz-adv-x="1118" d="M164 0v1434h217q86 0 124 -2t107.5 -19.5t122.5 -54.5q162 -113 162 -324q0 -164 -127 -262q125 -39 187.5 -136t62.5 -210q0 -207 -143 -326q-57 -47 -137.5 -70.5t-124.5 -26.5t-121 -3h-330zM385 205h131q158 0 220.5 64.5t62.5 152.5q0 90 -62.5 152.5t-216.5 62.5 h-135v-432zM385 817h66q233 0 233 211q0 201 -225 201h-74v-412z" />
<glyph unicode="&#x413;" horiz-adv-x="909" d="M164 0v1434h717v-205h-496v-1229h-221z" />
<glyph unicode="&#x414;" horiz-adv-x="1392" d="M29 205q74 2 133 54t94 140q51 133 51 377v658h897v-1229h160v-529h-205v324h-926v-324h-204v529zM365 205h618v1024h-455v-455q0 -260 -51 -399q-39 -104 -112 -170z" />
<glyph unicode="&#x415;" horiz-adv-x="1060" d="M164 0v1434h790v-205h-569v-344h553v-205h-553v-475h569v-205h-790z" />
<glyph unicode="&#x416;" horiz-adv-x="1818" d="M8 0l604 776l-589 658h266l510 -586v586h221v-586l510 586h266l-590 -658l604 -776h-274l-516 676v-676h-221v676l-516 -676h-275z" />
<glyph unicode="&#x417;" horiz-adv-x="1216" d="M53 317l193 101q31 -78 82 -131.5t109.5 -75t97 -28.5t77.5 -7q109 0 185 47q100 61 100 187q0 246 -338 245h-129v205h129q115 0 185.5 57.5t70.5 157.5q0 78 -49 125q-59 57 -170 57q-182 0 -291 -145l-145 139q94 111 195.5 161t238.5 50q195 0 315 -102 q119 -100 119 -268q0 -201 -176 -304q131 -35 198.5 -133t67.5 -231q0 -233 -186 -356q-147 -96 -338 -97q-375 0 -541 346z" />
<glyph unicode="&#x418;" horiz-adv-x="1515" d="M164 -61v1495h221v-967l967 1028v-1495h-222v967z" />
<glyph unicode="&#x419;" horiz-adv-x="1515" d="M164 -61v1495h221v-967l967 1028v-1495h-222v967zM403 1788l172 76q16 -57 66.5 -88t116 -31t116 30.5t66.5 88.5l172 -76q-43 -109 -141.5 -164t-213 -55t-213 55t-141.5 164z" />
<glyph unicode="&#x41a;" horiz-adv-x="1249" d="M164 0v1434h221v-572l553 572h287l-647 -650l651 -784h-291l-553 688v-688h-221z" />
<glyph unicode="&#x41b;" horiz-adv-x="1388" d="M29 0v205q49 -12 71 -12q86 0 138 47q72 68 71 340v854h916v-1434h-221v1229h-474v-715q0 -156 -26.5 -260t-118.5 -180q-102 -86 -252 -86q-59 0 -104 12z" />
<glyph unicode="&#x41c;" horiz-adv-x="1818" d="M123 0l301 1540l498 -1110l503 1110l271 -1540h-226l-143 864l-418 -930l-411 932l-150 -866h-225z" />
<glyph unicode="&#x41d;" horiz-adv-x="1380" d="M164 0v1434h221v-562h610v562h222v-1434h-222v668h-610v-668h-221z" />
<glyph unicode="&#x41e;" horiz-adv-x="1687" d="M98 715q0 317 213 532t532.5 215t532.5 -215t213 -532q0 -315 -212 -529.5t-533.5 -214.5t-533.5 214t-212 530zM328 714.5q0 -237.5 144 -388t371.5 -150.5t372 150.5t144.5 388t-144.5 390t-372 152.5t-371.5 -152.5t-144 -390z" />
<glyph unicode="&#x41f;" horiz-adv-x="1380" d="M164 0v1434h1053v-1434h-222v1229h-610v-1229h-221z" />
<glyph unicode="&#x420;" horiz-adv-x="1019" d="M164 0v1434h315q195 0 314 -78q178 -117 178 -348q0 -195 -140 -314q-131 -113 -350 -112h-96v-582h-221zM385 786h96q268 0 269 224q0 219 -271 219h-94v-443z" />
<glyph unicode="&#x421;" horiz-adv-x="1323" d="M98 711q0 342 230 561q199 190 518 190q225 0 383 -106v-258q-164 160 -387 159q-231 0 -372.5 -153.5t-141.5 -392.5q0 -231 144 -383t370 -152q213 0 387 166v-262q-170 -109 -393 -109q-297 0 -508 199q-229 219 -230 541z" />
<glyph unicode="&#x422;" horiz-adv-x="917" d="M20 1229v205h877v-205h-328v-1229h-221v1229h-328z" />
<glyph unicode="&#x423;" horiz-adv-x="1224" d="M12 1434h267l374 -744l330 744h229l-647 -1434h-229l192 428z" />
<glyph unicode="&#x424;" horiz-adv-x="1765" d="M98 762q0 113 32 204t78 147t113.5 98t124 61.5t125 31t100 13.5t64.5 2h37v172h221v-172h37q33 0 64.5 -2t100.5 -13.5t125 -31t123.5 -61.5t114 -98t78 -147.5t31.5 -203.5q0 -248 -158.5 -403.5t-478.5 -155.5h-37v-203h-221v203h-37q-319 0 -478 155.5t-159 403.5z M319 762q0 -158 104.5 -256t305.5 -98h43v706h-43q-203 0 -306.5 -98t-103.5 -254zM993 408h43q201 0 305.5 98t104.5 256q0 156 -103.5 254t-306.5 98h-43v-706z" />
<glyph unicode="&#x425;" horiz-adv-x="1171" d="M20 0l451 748l-395 686h246l278 -486l287 486h246l-414 -686l432 -748h-246l-313 549l-326 -549h-246z" />
<glyph unicode="&#x426;" horiz-adv-x="1409" d="M164 0v1434h221v-1229h590v1229h221v-1229h184v-529h-204v324h-1012z" />
<glyph unicode="&#x427;" horiz-adv-x="1290" d="M123 1010v424h221v-392q0 -164 76 -221q57 -45 231 -45q145 0 254 17v641h221v-1434h-221v588q-197 -16 -276 -17q-252 0 -365 91q-141 111 -141 348z" />
<glyph unicode="&#x428;" horiz-adv-x="1998" d="M164 0v1434h221v-1229h504v1229h221v-1229h504v1229h221v-1434h-1671z" />
<glyph unicode="&#x429;" horiz-adv-x="2048" d="M164 0v1434h221v-1229h504v1229h221v-1229h504v1229h221v-1229h184v-529h-204v324h-1651z" />
<glyph unicode="&#x42a;" horiz-adv-x="1269" d="M20 1229v205h545v-578h160q229 0 360 -115q135 -119 136 -313q0 -94 -42 -190.5t-137 -159.5q-115 -78 -315 -78h-383v1229h-324zM565 205h152q283 0 282 219q0 33 -8 64.5t-33.5 72.5t-86 65.5t-150.5 24.5h-156v-446z" />
<glyph unicode="&#x42b;" horiz-adv-x="1572" d="M164 0v1434h221v-578h160q229 0 360 -115q135 -119 135 -313q0 -94 -42 -190.5t-136 -159.5q-115 -78 -313 -78h-385zM385 205h152q283 0 282 219q0 33 -8 64.5t-33.5 72.5t-86 65.5t-150.5 24.5h-156v-446zM1188 0v1434h221v-1434h-221z" />
<glyph unicode="&#x42c;" horiz-adv-x="1089" d="M164 0v1434h221v-578h160q229 0 360 -115q135 -119 135 -313q0 -94 -42 -190.5t-136 -159.5q-115 -78 -313 -78h-385zM385 205h152q283 0 282 219q0 33 -8 64.5t-33.5 72.5t-86 65.5t-150.5 24.5h-156v-446z" />
<glyph unicode="&#x42d;" horiz-adv-x="1327" d="M98 80v258q180 -162 394 -162q246 0 387 152q117 127 125 305h-713v205h706q-25 168 -131 282q-131 137 -360 137q-224 1 -408 -159v258q160 106 416 106q305 0 502 -188q213 -207 213 -555q0 -336 -213 -549q-199 -199 -508 -199q-231 0 -410 109z" />
<glyph unicode="&#x42e;" horiz-adv-x="2138" d="M164 0v1434h221v-570h221q33 221 185 383q199 215 524 215q315 0 520 -214t205 -533q0 -317 -206 -530.5t-519 -213.5q-356 0 -561 252q-150 184 -156 436h-213v-659h-221zM819 716.5q0 -235.5 139.5 -388t356.5 -152.5t356 152.5t139 388t-139 388t-356 152.5 t-356.5 -152.5t-139.5 -388z" />
<glyph unicode="&#x42f;" horiz-adv-x="1140" d="M41 0l426 598q-127 14 -221 96q-123 104 -123 305q0 178 110 299q57 61 137.5 94t128.5 37.5t124 4.5h354v-1434h-221v573h-51l-394 -573h-270zM344 999q0 -115 74 -172q63 -49 217 -49h121v451h-109q-180 0 -244 -66q-59 -63 -59 -164z" />
<glyph unicode="&#x430;" horiz-adv-x="1130" d="M82 452.5q0 194.5 118.5 336t321.5 141.5q176 0 273 -131v106h209v-905h-209v94q-104 -123 -275 -123q-199 0 -318.5 143.5t-119.5 338zM299 449q0 -121 68.5 -205t185.5 -84t185.5 82t68.5 209q0 139 -74 214.5t-180 75.5q-113 0 -183.5 -84t-70.5 -208z" />
<glyph unicode="&#x431;" horiz-adv-x="1130" d="M82 557q0 397 135 598q102 152 272 193l152 36q78 18 118 46t54 75h215q-23 -111 -98.5 -190.5t-186.5 -108.5l-145 -39q-57 -16 -85 -25t-72 -38t-74 -72q-70 -94 -74 -231h2q45 63 131 96t176 33q195 0 318 -131q129 -135 129 -342q0 -211 -138.5 -348.5t-345.5 -137.5 q-205 0 -332 121q-152 143 -151 465zM299 449q0 -143 79 -216t187.5 -73t187 72.5t78.5 216.5q0 147 -78.5 219.5t-187 72.5t-187.5 -72.5t-79 -219.5z" />
<glyph unicode="&#x432;" horiz-adv-x="937" d="M127 0v905h354q137 0 207 -53q82 -66 82 -174q0 -125 -106 -176q76 -16 122 -62q70 -63 70 -174q0 -129 -98 -207q-78 -59 -209 -59h-422zM336 172h158q72 0 110 27q43 33 43 80q0 49 -41 77q-33 25 -106 25h-164v-209zM336 553h108q55 0 84 18q41 27 41 74q0 45 -37 70 q-27 18 -92 18h-104v-180z" />
<glyph unicode="&#x433;" horiz-adv-x="696" d="M127 0v905h553v-188h-344v-717h-209z" />
<glyph unicode="&#x434;" horiz-adv-x="1044" d="M8 188q113 10 168 119q37 76 37 240v358h680v-717h135v-446h-192v258h-635v-258h-193v446zM307 188h377v529h-270v-250q0 -197 -107 -279z" />
<glyph unicode="&#x435;" horiz-adv-x="1036" d="M82 446q0 219 118.5 351.5t317.5 132.5q231 0 344 -166q84 -125 84 -330v-33h-647q2 -115 77 -178t167 -63q80 0 143 49q57 43 92 125l176 -98q-51 -94 -118 -154q-125 -111 -316 -111q-174 0 -306 123t-132 352zM311 573h420q-18 78 -74.5 123t-134.5 45 q-76 0 -133.5 -46t-77.5 -122z" />
<glyph unicode="&#x436;" horiz-adv-x="1339" d="M4 0l385 492l-352 413h254l274 -336v336h209v-336l275 336h254l-353 -413l385 -492h-262l-299 401v-401h-209v401l-299 -401h-262z" />
<glyph unicode="&#x437;" horiz-adv-x="937" d="M82 186l168 86q25 -57 72 -90q53 -39 139 -39q84 0 127 31q51 35 51 102q0 61 -41 89q-35 25 -121 24h-108v172h94q61 0 90 21q37 25 37 75q0 49 -39 78q-37 23 -92 23q-70 0 -121 -29q-39 -20 -70 -57l-135 119q53 57 117 90q90 49 219 49q152 0 231 -64q90 -72 91 -180 q0 -133 -123 -184q68 -14 116 -58q72 -63 72 -161q0 -152 -127 -240q-102 -72 -260 -72q-162 0 -266 76q-72 51 -121 139z" />
<glyph unicode="&#x438;" horiz-adv-x="1085" d="M127 -70v975h209v-514l622 596v-987h-208v526z" />
<glyph unicode="&#x439;" horiz-adv-x="1085" d="M127 -70v975h209v-514l622 596v-987h-208v526zM197 1360l172 49q39 -139 176 -139t176 139l172 -49q-33 -111 -131 -182.5t-217 -71.5t-217 71.5t-131 182.5z" />
<glyph unicode="&#x43a;" horiz-adv-x="942" d="M127 0v905h209v-332l305 332h274l-393 -395l416 -510h-266l-336 418v-418h-209z" />
<glyph unicode="&#x43b;" horiz-adv-x="1003" d="M16 0v188q25 -4 39 -4q70 0 111 45q31 35 31 119v557h680v-905h-209v717h-271v-365q0 -166 -84 -260q-86 -96 -243 -96q-16 0 -54 4z" />
<glyph unicode="&#x43c;" horiz-adv-x="1245" d="M29 0l219 987l375 -688l374 688l220 -987h-213l-93 455l-288 -525l-289 525l-92 -455h-213z" />
<glyph unicode="&#x43d;" horiz-adv-x="1048" d="M127 0v905h209v-336h377v336h209v-905h-209v381h-377v-381h-209z" />
<glyph unicode="&#x43e;" horiz-adv-x="1130" d="M82 450.5q0 206.5 138 343t345 136.5t345.5 -136.5t138.5 -343t-138.5 -343t-345.5 -136.5t-345 136.5t-138 343zM299 449q0 -143 79 -216t187.5 -73t187 72.5t78.5 216.5q0 147 -78.5 219.5t-187 72.5t-187.5 -72.5t-79 -219.5z" />
<glyph unicode="&#x43f;" horiz-adv-x="1040" d="M127 0v905h786v-905h-208v717h-369v-717h-209z" />
<glyph unicode="&#x440;" horiz-adv-x="1130" d="M127 -430v1335h209v-98q102 123 274 123q182 0 310.5 -131t128.5 -344t-133.5 -348.5t-303.5 -135.5q-35 0 -73.5 8.5t-99 40t-103.5 84.5v-534h-209zM324 449q0 -123 67.5 -206t188.5 -83q115 0 183 84t68 209q0 135 -74.5 211.5t-176.5 76.5q-104 0 -180 -77.5 t-76 -214.5z" />
<glyph unicode="&#x441;" horiz-adv-x="897" d="M82 446q0 221 147 361q131 123 340 123q153 0 262 -66v-274q-43 70 -113.5 110.5t-148.5 40.5q-109 0 -189.5 -77.5t-80.5 -212.5q0 -123 72.5 -207t195.5 -84q162 0 264 153v-274q-117 -68 -249 -68q-233 0 -371 140q-129 129 -129 335z" />
<glyph unicode="&#x442;" horiz-adv-x="774" d="M16 717v188h742v-188h-266v-717h-209v717h-267z" />
<glyph unicode="&#x443;" horiz-adv-x="1036" d="M12 905h254l266 -510l254 510h238l-686 -1335h-238l316 598z" />
<glyph unicode="&#x444;" horiz-adv-x="1429" d="M86 453q0 219 150 348q139 119 374 119v514h209v-514q236 0 375 -119q150 -129 149 -348q0 -223 -151 -351q-143 -121 -373 -116v-416h-209v416q-229 -4 -372 116q-152 127 -152 351zM303 453q0 -147 107 -226q83 -57 200 -53v557q-125 0 -194 -47q-113 -72 -113 -231z M819 174q117 -4 201 53q106 78 106 226q0 160 -112 231q-72 47 -195 47v-557z" />
<glyph unicode="&#x445;" horiz-adv-x="1064" d="M12 0l400 489l-322 416h250l199 -264l202 264h258l-333 -416l387 -489h-254l-260 338l-269 -338h-258z" />
<glyph unicode="&#x446;" horiz-adv-x="1073" d="M127 0v905h209v-717h360v717h209v-717h152v-446h-193v258h-737z" />
<glyph unicode="&#x447;" horiz-adv-x="954" d="M106 614v291h209v-248q0 -94 56 -125q37 -20 104 -20q76 0 143 23v370h209v-905h-209v350q-100 -18 -186 -18q-154 0 -237 65q-88 70 -89 217z" />
<glyph unicode="&#x448;" horiz-adv-x="1486" d="M127 0v905h209v-717h303v717h209v-717h303v717h209v-905h-1233z" />
<glyph unicode="&#x449;" horiz-adv-x="1527" d="M127 0v905h209v-717h303v717h209v-717h303v717h209v-717h151v-446h-192v258h-1192z" />
<glyph unicode="&#x44a;" horiz-adv-x="933" d="M16 717v188h402v-321h123q59 0 94 -3t88 -24.5t92 -64.5q70 -76 70 -197q0 -137 -82 -217q-39 -37 -87 -55.5t-80 -20.5t-97 -2h-330v717h-193zM418 180h94q76 0 109 21q47 29 47 92q0 59 -45 90q-33 20 -109 20h-96v-223z" />
<glyph unicode="&#x44b;" horiz-adv-x="1232" d="M127 0v905h209v-321h123q57 0 92 -3t91 -24.5t93 -64.5q68 -76 68 -197q0 -143 -82 -219q-37 -35 -86 -53.5t-83 -20.5t-95 -2h-330zM336 180h94q76 0 109 21q47 29 47 92q0 59 -45 90q-33 20 -109 20h-96v-223zM897 0v905h209v-905h-209z" />
<glyph unicode="&#x44c;" horiz-adv-x="851" d="M127 0v905h209v-321h123q57 0 92 -3t91 -24.5t93 -64.5q68 -76 68 -197q0 -143 -82 -219q-37 -35 -86 -53.5t-83 -20.5t-95 -2h-330zM336 180h94q76 0 109 21q47 29 47 92q0 59 -45 90q-33 20 -109 20h-96v-223z" />
<glyph unicode="&#x44d;" horiz-adv-x="913" d="M82 25v200q111 -63 254 -63q98 0 174 55t92 158h-420v188h412q-20 84 -95 131t-165 47q-129 0 -252 -59v201q115 47 246 47q236 0 369.5 -134t133.5 -350q0 -207 -134 -341t-345 -134q-158 0 -270 54z" />
<glyph unicode="&#x44e;" horiz-adv-x="1495" d="M127 0v905h209v-336h145q27 129 119 226q135 135 338 135q207 0 341 -136.5t134 -342.5q0 -209 -135 -344.5t-340 -135.5q-217 0 -348 146q-98 113 -111 264h-143v-381h-209zM676 449q0 -145 75.5 -217t184 -72t184.5 71.5t76 217.5q0 147 -76 219.5t-184 72.5 q-111 0 -185.5 -72.5t-74.5 -219.5z" />
<glyph unicode="&#x44f;" horiz-adv-x="892" d="M16 0l285 358q-82 10 -143 66q-76 72 -76 190q0 131 82 209q86 82 264 82h338v-905h-209v334h-47l-248 -334h-246zM270 614.5q0 -59.5 43 -88.5q33 -20 117 -20h127v219h-129q-76 0 -111 -20q-47 -31 -47 -90.5z" />
<glyph unicode="&#x451;" horiz-adv-x="1036" d="M82 446q0 219 118.5 351.5t317.5 132.5q231 0 344 -166q84 -125 84 -330v-33h-647q2 -115 77 -178t167 -63q80 0 143 49q57 43 92 125l176 -98q-51 -94 -118 -154q-125 -111 -316 -111q-174 0 -306 123t-132 352zM213 1278q0 55 40 95t95 40t95 -40t40 -95t-40 -95 t-95 -40t-95 40t-40 95zM311 573h420q-18 78 -74.5 123t-134.5 45q-76 0 -133.5 -46t-77.5 -122zM598 1278q0 55 40 95t95 40t95 -40t40 -95t-40 -95t-95 -40t-95 40t-40 95z" />
<glyph unicode="&#x452;" horiz-adv-x="1032" d="M-29 1155v164h156v186h209v-186h430v-164h-430v-328q94 102 244 103q186 0 268 -123q57 -84 57 -252v-702q0 -180 -94 -252q-76 -59 -199 -60q-68 0 -137 21v180q41 -20 94 -21q74 0 105 48q23 41 22 129v637q0 43 -1 60t-10 46t-30 51q-41 49 -120 49q-104 0 -156 -77 q-43 -63 -43 -228v-436h-209v1155h-156z" />
<glyph unicode="&#x453;" horiz-adv-x="696" d="M127 0v905h553v-188h-344v-717h-209zM299 1114l258 336l193 -98l-336 -312z" />
<glyph unicode="&#x454;" horiz-adv-x="913" d="M82 449q0 219 147 358q133 123 346 123q147 -1 256 -60v-223q-106 94 -247 94q-94 0 -169 -47t-96 -131h412v-192h-418q12 -102 89 -156.5t182 -54.5q143 0 247 98v-221q-100 -66 -258 -66q-227 0 -362 140q-129 129 -129 338z" />
<glyph unicode="&#x455;" horiz-adv-x="765" d="M70 197l176 79q37 -117 149 -116q49 0 75 26.5t26 71.5q0 39 -20.5 63.5t-74.5 51.5q-12 6 -80.5 37.5t-99.5 50.5q-55 35 -80.5 80t-25.5 118q0 115 73.5 193t208.5 78q182 0 258 -178l-174 -93q-27 82 -100 82q-70 0 -70 -59q0 -25 15.5 -43t37 -30.5t68.5 -35.5 q119 -51 172 -92q109 -80 109 -202q0 -143 -102.5 -225.5t-227.5 -82.5q-100 0 -187 57.5t-126 168.5z" />
<glyph unicode="&#x456;" horiz-adv-x="462" d="M96 1278q0 55 40 95t95.5 40t95.5 -40t40 -95t-40 -95t-95.5 -40t-95.5 40t-40 95zM127 0v905h209v-905h-209z" />
<glyph unicode="&#x457;" horiz-adv-x="516" d="M20 1245q0 45 29 74t74 29t73.5 -29t28.5 -74t-28.5 -73.5t-73.5 -28.5t-74 28.5t-29 73.5zM154 0v905h208v-905h-208zM291 1245q0 45 28.5 74t73.5 29t74 -29t29 -74t-29 -73.5t-74 -28.5t-73.5 28.5t-28.5 73.5z" />
<glyph unicode="&#x458;" horiz-adv-x="462" d="M96 1278q0 55 40 95t95.5 40t95.5 -40t40 -95t-40 -95t-95.5 -40t-95.5 40t-40 95zM127 -430v1335h209v-1335h-209z" />
<glyph unicode="&#x459;" horiz-adv-x="1392" d="M16 0v188q25 -4 39 -4q70 0 111 45q31 35 31 119v557h680v-321h122q57 0 92 -3t91.5 -24.5t93.5 -64.5q68 -76 67 -197q0 -143 -81 -219q-37 -35 -86.5 -53.5t-83 -20.5t-95.5 -2h-329v717h-271v-365q0 -166 -84 -260q-86 -96 -243 -96q-16 0 -54 4zM877 180h94 q76 0 108 21q47 29 47 92q0 59 -45 90q-33 20 -108 20h-96v-223z" />
<glyph unicode="&#x45a;" horiz-adv-x="1437" d="M127 0v905h209v-321h377v321h209v-321h122q57 0 92 -3t91.5 -24.5t93.5 -64.5q68 -76 68 -197q0 -143 -82 -219q-37 -35 -86.5 -53.5t-83 -20.5t-95.5 -2h-329v403h-377v-403h-209zM922 180h94q76 0 108 21q47 29 47 92q0 59 -45 90q-33 20 -108 20h-96v-223z" />
<glyph unicode="&#x45b;" horiz-adv-x="1032" d="M-29 1155v164h156v186h209v-186h430v-164h-430v-328q94 102 244 103q186 0 268 -123q57 -84 57 -252v-555h-209v535q0 43 -1 60t-10 46t-30 51q-41 49 -120 49q-104 0 -156 -77q-43 -63 -43 -228v-436h-209v1155h-156z" />
<glyph unicode="&#x45c;" horiz-adv-x="942" d="M127 0v905h209v-332l305 332h274l-393 -395l416 -510h-266l-336 418v-418h-209zM362 1114l259 336l192 -98l-336 -312z" />
<glyph unicode="&#x45e;" horiz-adv-x="1036" d="M12 905h254l266 -510l254 510h238l-686 -1335h-238l316 598zM176 1360l172 49q39 -139 176 -139t176 139l172 -49q-33 -111 -131 -182.5t-216.5 -71.5t-217 71.5t-131.5 182.5z" />
<glyph unicode="&#x45f;" horiz-adv-x="1032" d="M127 0v905h209v-717h360v717h209v-905h-293v-307h-192v307h-293z" />
<glyph unicode="&#x490;" horiz-adv-x="909" d="M164 0v1434h512v323h205v-528h-496v-1229h-221z" />
<glyph unicode="&#x491;" horiz-adv-x="696" d="M127 0v905h360v258h193v-446h-344v-717h-209z" />
<glyph unicode="&#x2000;" horiz-adv-x="973" />
<glyph unicode="&#x2001;" horiz-adv-x="1946" />
<glyph unicode="&#x2002;" horiz-adv-x="973" />
<glyph unicode="&#x2003;" horiz-adv-x="1946" />
<glyph unicode="&#x2004;" horiz-adv-x="648" />
<glyph unicode="&#x2005;" horiz-adv-x="486" />
<glyph unicode="&#x2006;" horiz-adv-x="324" />
<glyph unicode="&#x2007;" horiz-adv-x="324" />
<glyph unicode="&#x2008;" horiz-adv-x="243" />
<glyph unicode="&#x2009;" horiz-adv-x="389" />
<glyph unicode="&#x200a;" horiz-adv-x="108" />
<glyph unicode="&#x2010;" horiz-adv-x="679" d="M82 348v217h516v-217h-516z" />
<glyph unicode="&#x2011;" horiz-adv-x="679" d="M82 348v217h516v-217h-516z" />
<glyph unicode="&#x2012;" horiz-adv-x="679" d="M82 348v217h516v-217h-516z" />
<glyph unicode="&#x2013;" horiz-adv-x="1236" d="M102 360v189h1033v-189h-1033z" />
<glyph unicode="&#x2014;" horiz-adv-x="1708" d="M102 360v189h1504v-189h-1504z" />
<glyph unicode="&#x2018;" horiz-adv-x="614" d="M102 963l267 532l143 -61l-217 -541z" />
<glyph unicode="&#x2019;" horiz-adv-x="716" d="M102 954l217 541l193 -70l-266 -532z" />
<glyph unicode="&#x201a;" horiz-adv-x="716" d="M102 -274l217 540l193 -69l-266 -533z" />
<glyph unicode="&#x201c;" horiz-adv-x="983" d="M102 963l267 532l139 -61l-221 -541zM475 963l266 532l140 -61l-222 -541z" />
<glyph unicode="&#x201d;" horiz-adv-x="1085" d="M102 954l222 541l184 -70l-266 -532zM475 954l221 541l185 -70l-267 -532z" />
<glyph unicode="&#x201e;" horiz-adv-x="1085" d="M102 -274l222 540l184 -69l-266 -533zM475 -274l221 540l185 -69l-267 -533z" />
<glyph unicode="&#x2026;" horiz-adv-x="1597" d="M131 106.5q0 55.5 40 95.5t95.5 40t95 -40t39.5 -95.5t-39.5 -95.5t-95 -40t-95.5 40t-40 95.5zM664 106.5q0 55.5 39.5 95.5t95 40t95.5 -40t40 -95.5t-40 -95.5t-95.5 -40t-95 40t-39.5 95.5zM1196 106.5q0 55.5 40 95.5t95 40t95 -40t40 -95.5t-40 -95.5t-95 -40 t-95 40t-40 95.5z" />
<glyph unicode="&#x202f;" horiz-adv-x="389" />
<glyph unicode="&#x2039;" horiz-adv-x="688" d="M82 467l352 463l144 -103l-279 -360l279 -361l-144 -102z" />
<glyph unicode="&#x203a;" horiz-adv-x="688" d="M111 106l278 361l-278 360l143 103l352 -463l-352 -463z" />
<glyph unicode="&#x205f;" horiz-adv-x="486" />
<glyph unicode="&#x20ac;" d="M47 487l59 166h91q-4 37 -4 72q0 12 1 33.5t1 29.5h-148l59 168h105q41 233 178 369.5t379 136.5q113 0 207 -27.5t141 -62.5v-217q-119 111 -323 111q-158 0 -250 -83t-117 -227h610l-59 -168h-576q0 -8 -1 -29.5t-1 -33.5t1 -37.5t1 -34.5h525l-60 -166h-440 q27 -152 120 -234.5t249 -82.5q201 0 321 109v-220q-111 -86 -348 -86q-229 0 -371.5 128t-183.5 386h-166z" />
<glyph unicode="&#x2122;" horiz-adv-x="1523" d="M0 1294v140h512v-140h-180v-680h-152v680h-180zM559 614l176 893l271 -602l274 602l174 -893h-154l-75 447l-219 -459l-220 459l-73 -447h-154z" />
<glyph unicode="&#x25fc;" horiz-adv-x="901" d="M0 0v901h901v-901h-901z" />
</font>
</defs>
</svg>
